PathFileType	4	(X/Y/Z)	C:\Users\WrightLab\Desktop\Jo\P1.2Trial4.trc
DataRate	CameraRate	NumFrames	NumMarkers	Units	OrigDataRate	OrigDataStartFrame	OrigNumFrames
100.00	100.00	       9	19	mm	100.00	66	       525
Frame#	Time	Headset_Front			Headset_Back			Headset_Left			Headset_Right			Left_Shoulder			Right_Shoulder			Sternum			C7			Left Elbow			Right Elbow			Left Wrist			Right Wrist			Left ASIS			Right ASIS			S2			Left Knee			Right Knee			Left Ankle			Right Ankle			
		X1	Y1	Z1	X2	Y2	Z2	X3	Y3	Z3	X4	Y4	Z4	X5	Y5	Z5	X6	Y6	Z6	X7	Y7	Z7	X8	Y8	Z8	X9	Y9	Z9	X10	Y10	Z10	X11	Y11	Z11	X12	Y12	Z12	X13	Y13	Z13	X14	Y14	Z14	X15	Y15	Z15	X16	Y16	Z16	X17	Y17	Z17	X18	Y18	Z18	X19	Y19	Z19	

66	0.650	-436.65051	1327.82654	-1036.69141	-514.92462	1378.76953	-1156.80286							-165.77156	1206.30298	-1238.12390				-394.01501	1134.04016	-1160.44751										-76.76160	702.96143	-1218.92810				-276.45587	828.46313	-1159.74109	-536.14172	821.68030	-1243.97021	-314.59216	898.12122	-1461.45764	-315.98822	422.38773	-1133.51123	-510.37970	380.98743	-1358.82568	-283.60004	71.56051	-1145.88940				
67	0.660	-438.60156	1329.74939	-1029.76904	-515.00604	1379.68127	-1149.90979	-581.24878	1223.08386	-1287.87415				-166.62352	1206.57874	-1228.09961				-395.68585	1134.72620	-1152.23779										-79.07311	703.32220	-1209.25952				-277.73654	829.91388	-1151.86060	-535.95483	821.77319	-1243.09778	-314.71027	899.37250	-1452.58557	-316.11096	421.42068	-1128.84802	-517.54364	383.15048	-1346.21826	-283.33405	71.10341	-1146.07898	-708.95007	728.86920	-1346.67676	
68	0.670	-438.71063	1331.17590	-1023.61749	-516.67029	1380.91064	-1142.28674							-167.92593	1207.16028	-1219.09924				-397.09219	1135.48462	-1146.22424				-112.78048	922.50153	-1305.74438				-81.19612	704.71375	-1200.21826				-279.97354	830.79364	-1141.76672	-538.41144	825.40546	-1231.48535	-314.78574	900.62256	-1444.50549	-315.71228	419.38498	-1129.64185	-526.41040	384.16074	-1337.38220	-283.26184	70.17824	-1145.66626				
69	0.680	-439.63708	1331.57532	-1016.00018	-516.88000	1381.90857	-1135.46216	-583.58221	1226.40735	-1275.53882				-168.84999	1207.92126	-1211.39844				-398.80984	1139.14417	-1133.80957				-113.43521	923.25720	-1295.42505				-81.91806	705.66089	-1189.97217				-281.29309	831.70068	-1133.89697	-539.60651	825.05505	-1226.97546	-314.86264	901.76685	-1436.83813	-314.65591	419.14420	-1122.74377	-535.94873	386.92892	-1325.32703	-283.43274	67.92603	-1144.10632				
70	0.690	-440.48163	1332.48328	-1008.74548																-400.71973	1139.64185	-1127.64539				-115.31244	923.82037	-1284.90332				-83.52777	706.18878	-1178.31458				-284.39221	830.80316	-1131.95459	-541.15198	826.00488	-1221.73706	-314.83029	902.22937	-1428.45630	-313.08368	418.66794	-1119.75415	-544.64905	388.82651	-1308.68774	-283.13956	66.75478	-1143.24292				
71	0.700	-441.49692	1333.06787	-1002.72070																-401.79022	1139.77710	-1121.10754				-115.90300	923.61060	-1275.19580				-84.13353	707.06165	-1168.65784				-285.18048	832.38385	-1120.27612	-543.13586	826.64142	-1215.19397	-314.99704	902.78259	-1421.29382	-310.44934	417.40717	-1115.10156	-552.78357	389.48279	-1301.16357	-282.71451	65.12887	-1142.91565				
72	0.710	-442.88589	1334.44885	-996.66364	-174.01797	1208.70569	-1186.34692										-651.98700	989.16644	-1344.01880	-403.70087	1141.14783	-1114.78113				-115.39187	923.54309	-1266.19324				-85.79755	707.64606	-1159.60486	-717.25977	732.71832	-1291.40808	-288.04208	831.72961	-1111.46509	-546.18170	828.69739	-1205.44812	-315.29987	902.88293	-1413.53625	-310.79630	416.87732	-1113.39038	-561.59052	389.51135	-1287.18579	-282.40891	65.17005	-1142.60742				
73	0.720	-443.67099	1333.91858	-990.14771	-520.66803	1386.70032	-1108.53198							-175.46136	1210.06055	-1181.56482	-654.34070	988.63538	-1335.44360	-405.95203	1141.28674	-1108.65430				-116.52899	923.99768	-1255.92798				-86.46494	708.21100	-1146.35217	-719.17987	733.47638	-1281.00085	-289.36621	831.70013	-1104.12195	-547.21906	828.14661	-1203.51782	-315.84732	903.48486	-1407.31775	-307.50867	416.58624	-1107.48132	-569.80811	390.03583	-1269.90759	-282.58136	64.85737	-1142.55823				
74	0.730	-443.63556	1334.26672	-984.18964	-521.95410	1387.00903	-1102.44055	-590.23669	1228.73730	-1245.31665				-177.18790	1209.57935	-1171.97668	-656.45850	987.89996	-1326.85925	-409.06662	1141.82446	-1102.23303				-117.20190	923.78339	-1242.72461				-87.90182	709.11945	-1134.28381	-721.84076	732.47522	-1267.69788	-290.68085	832.81415	-1097.46057	-549.21088	828.24414	-1196.95422	-316.59622	903.12921	-1399.71472	-306.00226	416.96933	-1103.40527	-576.97601	390.05045	-1256.54443	-282.35190	64.46981	-1142.58801				
